# xmcd
#
# Track frame offsets: 
#        150
#        11350
#        21717
#        32687
#        44075
#        55735
#        66850
#        75897
#        86200
#        97035
#        108397
#        120527
#
# Disc length: 1712 seconds
#
# Revision: 1
# Processed by: cddbd v1.5PL3 Copyright (c) Steve Scherf et al.
# Submitted via: ExactAudioCopy v0.90b4
#
DISCID=9906ae0c
DTITLE=Merle Haggard - Strangers
DYEAR=2001
DGENRE=Country
TTITLE0=(My Friends Are Gonna Be) Strangers
TTITLE1=Falling For You
TTITLE2=Please Mr. D.J.
TTITLE3=You Don't Have Far To Go
TTITLE4=Sing A Sad Song
TTITLE5=Sam Hill
TTITLE6=I'm Gonna Break Every Heart I Can
TTITLE7=You Don't Even Try
TTITLE8=If I Had Left It Up To You
TTITLE9=I'd Trade All Of My Tomorrows
TTITLE10=The Worst Is Yet To Come
TTITLE11=Walking The Floor Over You
EXTD=
EXTT0=
EXTT1=
EXTT2=
EXTT3=
EXTT4=
EXTT5=
EXTT6=
EXTT7=
EXTT8=
EXTT9=
EXTT10=
EXTT11=
PLAYORDER=
